<svg width="250" height="189" viewBox="0 0 250 189" fill="none" xmlns="http://www.w3.org/2000/svg">
<g filter="url(#filter0_d_178_43)">
<path d="M40 86.5C35.3056 86.5 31.5 90.3056 31.5 95C31.5 99.6944 35.3056 103.5 40 103.5V86.5ZM215.01 101.01C218.33 97.691 218.33 92.309 215.01 88.9896L160.917 34.8959C157.597 31.5765 152.215 31.5765 148.896 34.8959C145.576 38.2154 145.576 43.5973 148.896 46.9167L196.979 95L148.896 143.083C145.576 146.403 145.576 151.785 148.896 155.104C152.215 158.424 157.597 158.424 160.917 155.104L215.01 101.01ZM40 103.5H209V86.5H40V103.5Z" fill="#EF13B2"/>
</g>
<defs>
<filter id="filter0_d_178_43" x="-4" y="0" width="258" height="197" filterUnits="userSpaceOnUse" color-interpolation-filters="sRGB">
<feFlood flood-opacity="0" result="BackgroundImageFix"/>
<feColorMatrix in="SourceAlpha" type="matrix" values="0 0 0 0 0 0 0 0 0 0 0 0 0 0 0 0 0 0 127 0" result="hardAlpha"/>
<feOffset dy="4"/>
<feGaussianBlur stdDeviation="2"/>
<feComposite in2="hardAlpha" operator="out"/>
<feColorMatrix type="matrix" values="0 0 0 0 0 0 0 0 0 0 0 0 0 0 0 0 0 0 0.25 0"/>
<feBlend mode="normal" in2="BackgroundImageFix" result="effect1_dropShadow_178_43"/>
<feBlend mode="normal" in="SourceGraphic" in2="effect1_dropShadow_178_43" result="shape"/>
</filter>
</defs>
</svg>
