<svg width="300" height="300" viewBox="0 0 300 300" fill="none" xmlns="http://www.w3.org/2000/svg">
<path d="M92.3706 203.044C89.6336 206.153 89.9352 210.892 93.0442 213.629C96.1532 216.366 100.892 216.065 103.629 212.956L92.3706 203.044ZM208.485 90.5237C208.222 86.3899 204.657 83.2521 200.524 83.5151L133.16 87.8019C129.026 88.065 125.888 91.6293 126.151 95.7631C126.414 99.8969 129.979 103.035 134.113 102.772L193.991 98.9612L197.802 158.84C198.065 162.974 201.629 166.112 205.763 165.849C209.897 165.586 213.035 162.021 212.772 157.887L208.485 90.5237ZM103.629 212.956L206.629 95.9558L195.371 86.0442L92.3706 203.044L103.629 212.956Z" fill="white"/>
</svg>
