<svg width="150" height="150" viewBox="0 0 150 150" fill="none" xmlns="http://www.w3.org/2000/svg">
<path d="M75.25 132.5C106.869 132.5 132.5 106.869 132.5 75.25C132.5 43.6308 106.869 18 75.25 18C43.6308 18 18 43.6308 18 75.25C18 106.869 43.6308 132.5 75.25 132.5Z" stroke="black" stroke-width="10" stroke-linecap="round" stroke-linejoin="round"/>
<path d="M88.6089 115.324V104.659C88.752 102.884 88.5058 101.109 87.8875 99.4319C87.2651 97.7534 86.2888 96.2285 85.025 94.9607C97.0074 93.6611 109.602 89.2357 109.602 68.9463C109.591 63.7311 107.536 58.7282 103.877 55.0116C105.619 50.478 105.495 45.4396 103.534 40.9968C103.534 40.9968 99.0284 39.6972 88.6089 46.4985C79.8541 44.1906 70.6507 44.1906 61.896 46.4985C51.4765 39.6972 46.9709 41.0025 46.9709 41.0025C45.0128 45.4421 44.8894 50.4757 46.6274 55.0059C42.9435 58.75 40.8861 63.7967 40.9024 69.0493C40.9024 89.1956 53.4974 93.6153 65.4799 95.0637C64.2298 96.3205 63.2618 97.8291 62.6403 99.4891C62.0232 101.137 61.7694 102.898 61.896 104.653V115.324" stroke="black" stroke-width="10" stroke-linecap="round" stroke-linejoin="round"/>
<path d="M61.8944 107.894C50.4444 111.506 40.9008 107.894 35.1758 96.7412" stroke="black" stroke-width="10" stroke-linecap="round" stroke-linejoin="round"/>
</svg>
