<svg width="250" height="250" viewBox="0 0 250 250" fill="none" xmlns="http://www.w3.org/2000/svg">
<g filter="url(#filter0_d_177_5)">
<g clip-path="url(#clip0_177_5)">
<path d="M38 40H213V215H38V40Z" fill="#F7DF1E"/>
<path d="M84.0144 186.243L97.406 178.138C99.9899 182.719 102.34 186.595 107.978 186.595C113.382 186.595 116.789 184.481 116.789 176.259V120.342H133.234V176.491C133.234 193.524 123.25 201.278 108.683 201.278C95.5268 201.278 87.8903 194.464 84.0137 186.241M142.167 184.48L155.557 176.728C159.083 182.484 163.664 186.713 171.769 186.713C178.583 186.713 182.928 183.306 182.928 178.607C182.928 172.969 178.464 170.971 170.946 167.683L166.836 165.919C154.971 160.87 147.1 154.526 147.1 141.134C147.1 128.8 156.498 119.401 171.182 119.401C181.637 119.401 189.155 123.044 194.558 132.559L181.753 140.782C178.933 135.731 175.88 133.734 171.181 133.734C166.365 133.734 163.311 136.789 163.311 140.782C163.311 145.716 166.365 147.714 173.413 150.768L177.524 152.53C191.503 158.522 199.374 164.629 199.374 178.372C199.374 193.175 187.744 201.28 172.121 201.28C156.85 201.28 146.982 193.997 142.166 184.481" fill="black"/>
</g>
</g>
<defs>
<filter id="filter0_d_177_5" x="-4" y="0" width="258" height="258" filterUnits="userSpaceOnUse" color-interpolation-filters="sRGB">
<feFlood flood-opacity="0" result="BackgroundImageFix"/>
<feColorMatrix in="SourceAlpha" type="matrix" values="0 0 0 0 0 0 0 0 0 0 0 0 0 0 0 0 0 0 127 0" result="hardAlpha"/>
<feOffset dy="4"/>
<feGaussianBlur stdDeviation="2"/>
<feComposite in2="hardAlpha" operator="out"/>
<feColorMatrix type="matrix" values="0 0 0 0 0 0 0 0 0 0 0 0 0 0 0 0 0 0 0.25 0"/>
<feBlend mode="normal" in2="BackgroundImageFix" result="effect1_dropShadow_177_5"/>
<feBlend mode="normal" in="SourceGraphic" in2="effect1_dropShadow_177_5" result="shape"/>
</filter>
<clipPath id="clip0_177_5">
<rect x="38" y="40" width="175" height="175" rx="10" fill="white"/>
</clipPath>
</defs>
</svg>
