<svg width="75" height="75" viewBox="0 0 75 75" fill="none" xmlns="http://www.w3.org/2000/svg">
<path d="M12.5 9.375H62.5C63.3288 9.375 64.1237 9.70424 64.7097 10.2903C65.2958 10.8763 65.625 11.6712 65.625 12.5V62.5C65.625 63.3288 65.2958 64.1237 64.7097 64.7097C64.1237 65.2958 63.3288 65.625 62.5 65.625H12.5C11.6712 65.625 10.8763 65.2958 10.2903 64.7097C9.70424 64.1237 9.375 63.3288 9.375 62.5V12.5C9.375 11.6712 9.70424 10.8763 10.2903 10.2903C10.8763 9.70424 11.6712 9.375 12.5 9.375ZM15.625 15.625V59.375H59.375V15.625H15.625ZM23.4375 28.125C22.1943 28.125 21.002 27.6311 20.1229 26.7521C19.2439 25.873 18.75 24.6807 18.75 23.4375C18.75 22.1943 19.2439 21.002 20.1229 20.1229C21.002 19.2439 22.1943 18.75 23.4375 18.75C24.6807 18.75 25.873 19.2439 26.7521 20.1229C27.6311 21.002 28.125 22.1943 28.125 23.4375C28.125 24.6807 27.6311 25.873 26.7521 26.7521C25.873 27.6311 24.6807 28.125 23.4375 28.125ZM20.3125 31.25H26.5625V54.6875H20.3125V31.25ZM37.5 32.5938C39.325 30.8281 41.4562 29.6875 43.75 29.6875C50.2219 29.6875 54.6875 34.9344 54.6875 41.4062V54.6875H48.4375V41.4062C48.4375 39.9558 47.8613 38.5648 46.8357 37.5393C45.8102 36.5137 44.4192 35.9375 42.9688 35.9375C41.5183 35.9375 40.1273 36.5137 39.1018 37.5393C38.0762 38.5648 37.5 39.9558 37.5 41.4062V54.6875H31.25V31.25H37.5V32.5938Z" fill="#EF13B2"/>
</svg>
