<svg width="150" height="150" viewBox="0 0 150 150" fill="none" xmlns="http://www.w3.org/2000/svg">
<path d="M43.75 56.25L67.1875 75C69.4045 76.775 72.1599 77.7422 75 77.7422C77.8401 77.7422 80.5955 76.775 82.8125 75L106.25 56.25M131.25 106.25V43.75C131.25 40.4348 129.933 37.2554 127.589 34.9112C125.245 32.567 122.065 31.25 118.75 31.25H31.25C27.9348 31.25 24.7554 32.567 22.4112 34.9112C20.067 37.2554 18.75 40.4348 18.75 43.75V106.25C18.75 109.565 20.067 112.745 22.4112 115.089C24.7554 117.433 27.9348 118.75 31.25 118.75H118.75C122.065 118.75 125.245 117.433 127.589 115.089C129.933 112.745 131.25 109.565 131.25 106.25Z" stroke="black" stroke-width="12" stroke-linecap="round" stroke-linejoin="round"/>
</svg>
