<svg width="150" height="150" viewBox="0 0 150 150" fill="none" xmlns="http://www.w3.org/2000/svg">
<path d="M107.975 34.1874C110.694 35.1874 112.5 37.7812 112.5 40.6812V109.312C112.5 112.212 110.687 114.806 107.975 115.806C102.828 117.703 97.1725 117.703 92.025 115.806C90.6981 115.317 89.5531 114.433 88.744 113.273C87.935 112.113 87.5008 110.733 87.5 109.319V40.6874C87.5 37.7874 89.3125 35.1937 92.025 34.1874C97.1725 32.2904 102.828 32.2904 107.975 34.1874ZM57.975 34.1874C60.6938 35.1874 62.5 37.7812 62.5 40.6812V109.312C62.5 112.212 60.6875 114.806 57.975 115.806C52.8275 117.703 47.1725 117.703 42.025 115.806C40.6981 115.317 39.5531 114.433 38.744 113.273C37.935 112.113 37.5008 110.733 37.5 109.319V40.6874C37.5 37.7874 39.3125 35.1937 42.025 34.1874C47.1725 32.2904 52.8275 32.2904 57.975 34.1874Z" fill="black"/>
</svg>
